Coordinates
version=1
nRows=29
nColumns=24
inDegrees=yes

Units are S.I. units (second, meters, Newtons, ...)
Angles are in degrees.

endheader
time	pelvis_tilt	pelvis_list	pelvis_rotation	pelvis_tx	pelvis_ty	pelvis_tz	hip_flexion_r	hip_adduction_r	hip_rotation_r	knee_angle_r	ankle_angle_r	subtalar_angle_r	mtp_angle_r	hip_flexion_l	hip_adduction_l	hip_rotation_l	knee_angle_l	ankle_angle_l	subtalar_angle_l	mtp_angle_l	lumbar_extension	lumbar_bending	lumbar_rotation
      0.84633333	      1.52653280	     -0.26962526	     -2.76284052	     -0.49814445	      1.08179024	      0.35292308	      8.61678339	      5.20868549	     -6.18613634	    -13.18472226	      0.51167759	     -4.24019971	      4.68142754	     12.77859682	     -1.12392906	     -2.10087822	    -62.90308444	     -1.52483656	    -10.09583252	     21.12454436	      1.38198368	      5.21829359	      1.62343116
      0.85050000	      1.53969634	     -0.19569007	     -2.79842741	     -0.49328815	      1.08247407	      0.35322442	      8.25609304	      5.14350253	     -6.09258865	    -13.06624883	      0.67674520	     -4.19875162	      4.68612594	     13.29332175	     -1.03858935	     -1.85466876	    -62.67109338	     -1.05596415	    -10.23191140	     21.01018753	      1.32318098	      5.12217320	      1.70706060
      0.85466667	      1.55367226	     -0.12401248	     -2.84245822	     -0.48844016	      1.08313203	      0.35350174	      7.89221212	      5.07798889	     -6.00759501	    -12.94536634	      0.85073961	     -4.15288869	      4.69082229	     13.79266242	     -0.95169405	     -1.61086969	    -62.38112234	     -0.57451309	    -10.33153941	     20.87672205	      1.27178353	      5.02157776	      1.80342421
      0.85883333	      1.57493274	     -0.04233997	     -2.91369013	     -0.48359658	      1.08379713	      0.35372370	      7.52660368	      4.99302021	     -5.95065604	    -12.83418320	      1.04488691	     -4.08852685	      4.69628992	     14.26312853	     -0.84528303	     -1.39431509	    -62.02052258	     -0.06692244	    -10.35399528	     20.66096894	      1.19090230	      4.96574417	      1.92675478
      0.86300000	      1.58634835	     -0.00531805	     -2.93698740	     -0.47872617	      1.08441930	      0.35408561	      7.13528046	      4.97595473	     -5.82059884	    -12.64666165	      1.14142905	     -4.03771644	      4.69888763	     14.73795474	     -0.80392228	     -1.13891303	    -61.60811590	      0.19510670	    -10.39681537	     20.55857007	      1.14971335	      4.86127096	      1.99979409
      0.86716667	      1.60429147	      0.04129987	     -2.98402598	     -0.47385681	      1.08502027	      0.35435209	      6.74431006	      4.93566348	     -5.73203890	    -12.47739841	      1.28855504	     -4.00109673	      4.70135509	     15.18495921	     -0.73793090	     -0.90088564	    -61.13616420	      0.57448677	    -10.46193496	     20.44255628	      1.10424321	      4.77935684	      2.08142714
      0.87133333	      1.59650974	      0.09703692	     -3.05827215	     -0.46903418	      1.08556332	      0.35453802	      6.39135187	      4.87580271	     -5.64288174	    -12.33075408	      1.35631331	     -3.97997232	      4.70225506	     15.64386089	     -0.65619897	     -0.67857989	    -60.59422793	      0.74834144	    -10.48733039	     20.39585911	      1.02525968	      4.76347849	      2.11053696
      0.87550000	      1.62704402	      0.10567850	     -3.09177364	     -0.46408741	      1.08614317	      0.35487710	      5.95819463	      4.88534818	     -5.56149944	    -12.11698515	      1.55018925	     -3.91896183	      4.70450981	     16.04027670	     -0.63853267	     -0.45251981	    -60.01988440	      1.19133767	    -10.55680851	     20.27043289	      1.01146597	      4.66278280	      2.21943283
      0.87966667	      1.64202977	      0.12590224	     -3.15335664	     -0.45921445	      1.08666617	      0.35512044	      5.55364260	      4.87075375	     -5.47018216	    -11.91853756	      1.69377993	     -3.85267434	      4.70547180	     16.43837913	     -0.59915116	     -0.23473404	    -59.37782875	      1.49586926	    -10.57809369	     20.14026998	      0.95000770	      4.63849274	      2.31136411
      0.88383333	      1.66466197	      0.13881309	     -3.21692115	     -0.45432063	      1.08717154	      0.35535562	      5.13365976	      4.86183038	     -5.39064416	    -11.70989200	      1.82078501	     -3.78885228	      4.70551910	     16.80825102	     -0.56778746	     -0.02672960	    -58.67742132	      1.75148665	    -10.61202146	     20.01072886	      0.88979458	      4.61317024	      2.40189327
      0.88800000	      1.67962702	      0.14265823	     -3.28410419	     -0.44942228	      1.08763497	      0.35558311	      4.71794452	      4.86196584	     -5.31143571	    -11.49529854	      1.94466956	     -3.72053550	      4.70473032	     17.16931898	     -0.54483500	      0.17295235	    -57.92472295	      1.97645609	    -10.66625694	     19.87418031	      0.82709449	      4.59720515	      2.49442226
      0.89216667	      1.79252838	      0.13884458	     -3.38110429	     -0.44467208	      1.08819973	      0.35577607	      4.20915030	      4.85776255	     -5.23626070	    -11.29580471	      2.18965748	     -3.46506299	      4.69010630	     17.40873085	     -0.52472661	      0.34181522	    -57.11821445	      2.25978468	    -10.75844264	     19.14118324	      0.46582690	      4.61506473	      2.87166010
      0.89633333	      1.76973413	      0.13246387	     -3.44068591	     -0.43963167	      1.08857366	      0.35597620	      3.80921011	      4.86832604	     -5.17652014	    -11.04132019	      2.21768800	     -3.46917010	      4.68684517	     17.75938656	     -0.51117368	      0.53932086	    -56.23669948	      2.33994041	    -10.81705756	     19.04912420	      0.56127360	      4.64420479	      2.89184967
      0.90050000	      1.70371537	      0.11216349	     -3.50659123	     -0.43472437	      1.08880806	      0.35612456	      3.47189445	      4.89105175	     -5.10605236	    -10.81100805	      2.26464474	     -3.45622213	      4.68559877	     18.15706798	     -0.51189438	      0.73567586	    -55.33045095	      2.43695699	    -10.88358954	     19.00314342	      0.52481630	      4.67188790	      2.90053704
      0.90466667	      1.75075386	      0.10433398	     -3.61417935	     -0.42970904	      1.08922991	      0.35637552	      2.99307543	      4.89846417	     -5.02156688	    -10.55332294	      2.43619258	     -3.41352381	      4.67437387	     18.38238626	     -0.50927650	      0.84990024	    -54.33316498	      2.59396380	    -11.26594716	     18.70238325	      0.51118093	      4.63443959	      3.01456173
      0.90883333	      1.72560478	      0.04126308	     -3.64194286	     -0.42475117	      1.08945943	      0.35658396	      2.57707912	      4.97574638	     -4.91928262	    -10.25819988	      2.47842057	     -3.35109202	      4.67068646	     18.69702602	     -0.55704281	      1.05875026	    -53.32933066	      2.62557494	    -11.35722611	     18.60059819	      0.53463373	      4.70097769	      3.05224521
      0.91300000	      1.64892957	      0.00154739	     -3.70675808	     -0.41979799	      1.08959336	      0.35667445	      2.23640200	      5.01388729	     -4.85716884	    -10.00707977	      2.52573304	     -3.32532052	      4.66871231	     19.03905333	     -0.57367152	      1.24357693	    -52.25812441	      2.69160142	    -11.44631733	     18.54975947	      0.49399438	      4.76030598	      3.06669438
      0.91716667	      1.74639503	     -0.00148391	     -3.85535127	     -0.41472961	      1.09001281	      0.35693171	      1.69160166	      5.00509424	     -4.75589707	     -9.72705146	      2.68477302	     -3.21657833	      4.65036033	     19.12970815	     -0.57236617	      1.28214243	    -51.06523691	      2.58373940	    -12.10694449	     18.17628026	      0.41440094	      4.71297167	      3.26276201
      0.92133333	      1.70335907	     -0.09005964	     -3.86146851	     -0.40974717	      1.09010793	      0.35708116	      1.28054244	      5.10821285	     -4.66883225	     -9.40885426	      2.71545247	     -3.15329427	      4.64511167	     19.40362919	     -0.64108806	      1.49068546	    -49.91259015	      2.58736315	    -12.20692821	     18.07212865	      0.45990133	      4.83829899	      3.30139392
      0.92550000	      1.78503075	     -0.10766052	     -3.98375941	     -0.40472617	      1.09042446	      0.35720522	      0.75743854	      5.10354849	     -4.60804961	     -9.13501447	      2.80017987	     -3.06241775	      4.61677724	     19.47865351	     -0.63707991	      1.56603720	    -48.62113892	      2.33439375	    -12.85812227	     17.60981430	      0.27259046	      4.82847687	      3.49561391
      0.92966667	      1.71478257	     -0.20079893	     -3.99568850	     -0.39970120	      1.09041263	      0.35733670	      0.37129317	      5.21078384	     -4.52516135	     -8.81147799	      2.83609259	     -3.01384688	      4.61072297	     19.73534365	     -0.71417047	      1.74763627	    -47.36765508	      2.36371318	    -12.94885402	     17.50702735	      0.35361629	      4.97279226	      3.51969703
      0.93383333	      1.75069917	     -0.22917406	     -4.11227699	     -0.39464088	      1.09058590	      0.35748188	     -0.11224903	      5.22253330	     -4.43421244	     -8.52299193	      2.89583605	     -2.95265390	      4.57786786	     19.81680696	     -0.73023085	      1.80760223	    -45.98106611	      2.04224710	    -13.60911067	     17.02545411	      0.23830085	      4.95743081	      3.67731989
      0.93800000	      1.64915636	     -0.32368658	     -4.12511885	     -0.38964580	      1.09044737	      0.35750642	     -0.45330170	      5.32313442	     -4.36514792	     -8.22706615	      2.92940510	     -2.92351444	      4.57362600	     20.06618934	     -0.80017997	      2.00046193	    -44.63147091	      2.08352273	    -13.67554078	     16.95823979	      0.28171495	      5.11206262	      3.68068419
      0.94216667	      1.62611721	     -0.40964608	     -4.14992427	     -0.38447693	      1.09043752	      0.35771079	     -0.90848268	      5.42433416	     -4.29043180	     -7.87410730	      2.96769137	     -2.89803189	      4.56408677	     20.18601752	     -0.87810698	      2.09793693	    -43.20412399	      1.98241059	    -13.92352517	     16.82023766	      0.43891900	      5.22921063	      3.72229554
      0.94633333	      1.64639274	     -0.45154648	     -4.26597273	     -0.37941436	      1.09048004	      0.35783325	     -1.37683950	      5.44731816	     -4.17624215	     -7.58154118	      2.98615842	     -2.88571661	      4.52942872	     20.21799094	     -0.91080310	      2.13557631	    -41.66362928	      1.42187993	    -14.79971900	     16.35389075	      0.26602299	      5.20195782	      3.85440041
      0.95050000	      1.65997604	     -0.53410096	     -4.27955916	     -0.37433803	      1.09043207	      0.35784858	     -1.85134736	      5.52298436	     -4.16539449	     -7.26546491	      3.01927175	     -2.86071794	      4.48400322	     20.26049446	     -0.95982255	      2.26387924	    -40.13007587	      1.11936890	    -15.30510000	     15.75986773	      0.21865029	      5.32388918	      3.97232295
      0.95466667	      1.55767682	     -0.64423640	     -4.27346138	     -0.36923220	      1.09016048	      0.35793285	     -2.21187947	      5.65067419	     -4.07976751	     -6.93265984	      3.04874841	     -2.82925424	      4.47605755	     20.41977793	     -1.05424904	      2.38894892	    -38.60150217	      1.12694236	    -15.38517485	     15.64727115	      0.33743084	      5.50177302	      3.96886710
      0.95883333	      1.53767744	     -0.71613107	     -4.35396675	     -0.36410145	      1.09001603	      0.35808482	     -2.65076208	      5.71841922	     -3.95351682	     -6.62137987	      3.05201745	     -2.88285771	      4.43907006	     20.43789960	     -1.12497757	      2.41760471	    -36.95899049	      0.61917976	    -16.01889670	     15.17230681	      0.30216678	      5.49534658	      4.02020159
      0.96300000	      1.44769852	     -0.83890914	     -4.33012411	     -0.35900171	      1.08967790	      0.35808816	     -3.01818212	      5.85466747	     -3.90972649	     -6.30717134	      3.08371336	     -2.87784673	      4.43114996	     20.54570877	     -1.22108763	      2.55363567	    -35.35392633	      0.61276344	    -16.12060386	     15.06374773	      0.43314205	      5.71804470	      4.01427111
